<mxfile host="app.diagrams.net" modified="2024-05-28T19:09:16.189Z" agent="Mozilla/5.0 (Windows NT 10.0; Win64; x64) AppleWebKit/537.36 (KHTML, like Gecko) Chrome/125.0.0.0 Safari/537.36" etag="nmrofdUkWRmE15FQghsO" version="24.4.9" type="github">
  <diagram name="第 1 页" id="lyznNH9BhDbf1mia6nhI">
    <mxGraphModel dx="1434" dy="1907" grid="1" gridSize="10" guides="1" tooltips="1" connect="1" arrows="1" fold="1" page="1" pageScale="1" pageWidth="827" pageHeight="1169" math="0" shadow="0">
      <root>
        <mxCell id="0" />
        <mxCell id="1" parent="0" />
        <mxCell id="ZDhaCBMrM8aTtv54tsJH-1" value="User" style="shape=umlLifeline;perimeter=lifelinePerimeter;whiteSpace=wrap;container=1;dropTarget=0;collapsible=0;recursiveResize=0;outlineConnect=0;portConstraint=eastwest;newEdgeStyle={&quot;edgeStyle&quot;:&quot;elbowEdgeStyle&quot;,&quot;elbow&quot;:&quot;vertical&quot;,&quot;curved&quot;:0,&quot;rounded&quot;:0};participant=umlActor;verticalAlign=bottom;labelPosition=center;verticalLabelPosition=top;align=center;size=65;fontSize=18;" vertex="1" parent="1">
          <mxGeometry x="20" y="20" width="35" height="784" as="geometry" />
        </mxCell>
        <mxCell id="ZDhaCBMrM8aTtv54tsJH-2" value="InstitutionController" style="shape=umlLifeline;perimeter=lifelinePerimeter;whiteSpace=wrap;container=1;dropTarget=0;collapsible=0;recursiveResize=0;outlineConnect=0;portConstraint=eastwest;newEdgeStyle={&quot;edgeStyle&quot;:&quot;elbowEdgeStyle&quot;,&quot;elbow&quot;:&quot;vertical&quot;,&quot;curved&quot;:0,&quot;rounded&quot;:0};size=65;fontSize=18;" vertex="1" parent="1">
          <mxGeometry x="220" y="20" width="162" height="784" as="geometry" />
        </mxCell>
        <mxCell id="ZDhaCBMrM8aTtv54tsJH-3" value="" style="points=[];perimeter=orthogonalPerimeter;outlineConnect=0;targetShapes=umlLifeline;portConstraint=eastwest;newEdgeStyle={&quot;edgeStyle&quot;:&quot;elbowEdgeStyle&quot;,&quot;elbow&quot;:&quot;vertical&quot;,&quot;curved&quot;:0,&quot;rounded&quot;:0};fontSize=18;" vertex="1" parent="ZDhaCBMrM8aTtv54tsJH-2">
          <mxGeometry x="76" y="107" width="10" height="582" as="geometry" />
        </mxCell>
        <mxCell id="ZDhaCBMrM8aTtv54tsJH-4" value="UserService" style="shape=umlLifeline;perimeter=lifelinePerimeter;whiteSpace=wrap;container=1;dropTarget=0;collapsible=0;recursiveResize=0;outlineConnect=0;portConstraint=eastwest;newEdgeStyle={&quot;edgeStyle&quot;:&quot;elbowEdgeStyle&quot;,&quot;elbow&quot;:&quot;vertical&quot;,&quot;curved&quot;:0,&quot;rounded&quot;:0};size=65;fontSize=18;" vertex="1" parent="1">
          <mxGeometry x="432" y="20" width="150" height="784" as="geometry" />
        </mxCell>
        <mxCell id="ZDhaCBMrM8aTtv54tsJH-5" value="" style="points=[];perimeter=orthogonalPerimeter;outlineConnect=0;targetShapes=umlLifeline;portConstraint=eastwest;newEdgeStyle={&quot;edgeStyle&quot;:&quot;elbowEdgeStyle&quot;,&quot;elbow&quot;:&quot;vertical&quot;,&quot;curved&quot;:0,&quot;rounded&quot;:0};fontSize=18;" vertex="1" parent="ZDhaCBMrM8aTtv54tsJH-4">
          <mxGeometry x="70" y="159" width="10" height="52" as="geometry" />
        </mxCell>
        <mxCell id="ZDhaCBMrM8aTtv54tsJH-6" value="InstitutionService" style="shape=umlLifeline;perimeter=lifelinePerimeter;whiteSpace=wrap;container=1;dropTarget=0;collapsible=0;recursiveResize=0;outlineConnect=0;portConstraint=eastwest;newEdgeStyle={&quot;edgeStyle&quot;:&quot;elbowEdgeStyle&quot;,&quot;elbow&quot;:&quot;vertical&quot;,&quot;curved&quot;:0,&quot;rounded&quot;:0};size=65;fontSize=18;" vertex="1" parent="1">
          <mxGeometry x="632" y="20" width="150" height="784" as="geometry" />
        </mxCell>
        <mxCell id="ZDhaCBMrM8aTtv54tsJH-7" value="" style="points=[];perimeter=orthogonalPerimeter;outlineConnect=0;targetShapes=umlLifeline;portConstraint=eastwest;newEdgeStyle={&quot;edgeStyle&quot;:&quot;elbowEdgeStyle&quot;,&quot;elbow&quot;:&quot;vertical&quot;,&quot;curved&quot;:0,&quot;rounded&quot;:0};fontSize=18;" vertex="1" parent="ZDhaCBMrM8aTtv54tsJH-6">
          <mxGeometry x="70" y="263" width="10" height="52" as="geometry" />
        </mxCell>
        <mxCell id="ZDhaCBMrM8aTtv54tsJH-8" value="" style="points=[];perimeter=orthogonalPerimeter;outlineConnect=0;targetShapes=umlLifeline;portConstraint=eastwest;newEdgeStyle={&quot;edgeStyle&quot;:&quot;elbowEdgeStyle&quot;,&quot;elbow&quot;:&quot;vertical&quot;,&quot;curved&quot;:0,&quot;rounded&quot;:0};fontSize=18;" vertex="1" parent="ZDhaCBMrM8aTtv54tsJH-6">
          <mxGeometry x="70" y="471" width="10" height="52" as="geometry" />
        </mxCell>
        <mxCell id="ZDhaCBMrM8aTtv54tsJH-9" value="" style="points=[];perimeter=orthogonalPerimeter;outlineConnect=0;targetShapes=umlLifeline;portConstraint=eastwest;newEdgeStyle={&quot;edgeStyle&quot;:&quot;elbowEdgeStyle&quot;,&quot;elbow&quot;:&quot;vertical&quot;,&quot;curved&quot;:0,&quot;rounded&quot;:0};fontSize=18;" vertex="1" parent="ZDhaCBMrM8aTtv54tsJH-6">
          <mxGeometry x="70" y="575" width="10" height="52" as="geometry" />
        </mxCell>
        <mxCell id="ZDhaCBMrM8aTtv54tsJH-10" value="Institution" style="shape=umlLifeline;perimeter=lifelinePerimeter;whiteSpace=wrap;container=1;dropTarget=0;collapsible=0;recursiveResize=0;outlineConnect=0;portConstraint=eastwest;newEdgeStyle={&quot;edgeStyle&quot;:&quot;elbowEdgeStyle&quot;,&quot;elbow&quot;:&quot;vertical&quot;,&quot;curved&quot;:0,&quot;rounded&quot;:0};size=65;fontSize=18;" vertex="1" parent="1">
          <mxGeometry x="832" y="20" width="150" height="784" as="geometry" />
        </mxCell>
        <mxCell id="ZDhaCBMrM8aTtv54tsJH-11" value="" style="points=[];perimeter=orthogonalPerimeter;outlineConnect=0;targetShapes=umlLifeline;portConstraint=eastwest;newEdgeStyle={&quot;edgeStyle&quot;:&quot;elbowEdgeStyle&quot;,&quot;elbow&quot;:&quot;vertical&quot;,&quot;curved&quot;:0,&quot;rounded&quot;:0};fontSize=18;" vertex="1" parent="ZDhaCBMrM8aTtv54tsJH-10">
          <mxGeometry x="70" y="367" width="10" height="52" as="geometry" />
        </mxCell>
        <mxCell id="ZDhaCBMrM8aTtv54tsJH-12" value="1:addInstitution" style="verticalAlign=bottom;endArrow=block;edgeStyle=elbowEdgeStyle;elbow=vertical;curved=0;rounded=0;fontSize=18;" edge="1" parent="1" source="ZDhaCBMrM8aTtv54tsJH-1" target="ZDhaCBMrM8aTtv54tsJH-3">
          <mxGeometry relative="1" as="geometry">
            <Array as="points">
              <mxPoint x="208" y="127" />
            </Array>
          </mxGeometry>
        </mxCell>
        <mxCell id="ZDhaCBMrM8aTtv54tsJH-13" value="1.1:getById" style="verticalAlign=bottom;endArrow=block;edgeStyle=elbowEdgeStyle;elbow=vertical;curved=0;rounded=0;fontSize=18;" edge="1" parent="1" source="ZDhaCBMrM8aTtv54tsJH-3" target="ZDhaCBMrM8aTtv54tsJH-5">
          <mxGeometry relative="1" as="geometry">
            <Array as="points">
              <mxPoint x="417" y="179" />
            </Array>
          </mxGeometry>
        </mxCell>
        <mxCell id="ZDhaCBMrM8aTtv54tsJH-14" value="1.2:return" style="verticalAlign=bottom;endArrow=block;edgeStyle=elbowEdgeStyle;elbow=vertical;curved=0;rounded=0;dashed=1;dashPattern=2 3;fontSize=18;" edge="1" parent="1" source="ZDhaCBMrM8aTtv54tsJH-5" target="ZDhaCBMrM8aTtv54tsJH-3">
          <mxGeometry relative="1" as="geometry">
            <Array as="points">
              <mxPoint x="414" y="231" />
            </Array>
          </mxGeometry>
        </mxCell>
        <mxCell id="ZDhaCBMrM8aTtv54tsJH-15" value="1.3:selectList" style="verticalAlign=bottom;endArrow=block;edgeStyle=elbowEdgeStyle;elbow=vertical;curved=0;rounded=0;fontSize=18;" edge="1" parent="1" source="ZDhaCBMrM8aTtv54tsJH-3" target="ZDhaCBMrM8aTtv54tsJH-7">
          <mxGeometry relative="1" as="geometry">
            <Array as="points">
              <mxPoint x="517" y="283" />
            </Array>
          </mxGeometry>
        </mxCell>
        <mxCell id="ZDhaCBMrM8aTtv54tsJH-16" value="1.4:return" style="verticalAlign=bottom;endArrow=block;edgeStyle=elbowEdgeStyle;elbow=vertical;curved=0;rounded=0;dashed=1;dashPattern=2 3;fontSize=18;" edge="1" parent="1" source="ZDhaCBMrM8aTtv54tsJH-7" target="ZDhaCBMrM8aTtv54tsJH-3">
          <mxGeometry relative="1" as="geometry">
            <Array as="points">
              <mxPoint x="514" y="335" />
            </Array>
          </mxGeometry>
        </mxCell>
        <mxCell id="ZDhaCBMrM8aTtv54tsJH-17" value="1.5:newActive" style="verticalAlign=bottom;endArrow=block;edgeStyle=elbowEdgeStyle;elbow=vertical;curved=0;rounded=0;fontSize=18;" edge="1" parent="1" source="ZDhaCBMrM8aTtv54tsJH-3" target="ZDhaCBMrM8aTtv54tsJH-11">
          <mxGeometry relative="1" as="geometry">
            <Array as="points">
              <mxPoint x="617" y="387" />
            </Array>
          </mxGeometry>
        </mxCell>
        <mxCell id="ZDhaCBMrM8aTtv54tsJH-18" value="1.6:return" style="verticalAlign=bottom;endArrow=block;edgeStyle=elbowEdgeStyle;elbow=vertical;curved=0;rounded=0;dashed=1;dashPattern=2 3;fontSize=18;" edge="1" parent="1" source="ZDhaCBMrM8aTtv54tsJH-11" target="ZDhaCBMrM8aTtv54tsJH-3">
          <mxGeometry relative="1" as="geometry">
            <Array as="points">
              <mxPoint x="614" y="439" />
            </Array>
          </mxGeometry>
        </mxCell>
        <mxCell id="ZDhaCBMrM8aTtv54tsJH-19" value="1.7:setNo" style="verticalAlign=bottom;endArrow=block;edgeStyle=elbowEdgeStyle;elbow=vertical;curved=0;rounded=0;fontSize=18;" edge="1" parent="1" source="ZDhaCBMrM8aTtv54tsJH-3" target="ZDhaCBMrM8aTtv54tsJH-8">
          <mxGeometry relative="1" as="geometry">
            <Array as="points">
              <mxPoint x="517" y="491" />
            </Array>
          </mxGeometry>
        </mxCell>
        <mxCell id="ZDhaCBMrM8aTtv54tsJH-20" value="1.8:return" style="verticalAlign=bottom;endArrow=block;edgeStyle=elbowEdgeStyle;elbow=vertical;curved=0;rounded=0;dashed=1;dashPattern=2 3;fontSize=18;" edge="1" parent="1" source="ZDhaCBMrM8aTtv54tsJH-8" target="ZDhaCBMrM8aTtv54tsJH-3">
          <mxGeometry relative="1" as="geometry">
            <Array as="points">
              <mxPoint x="514" y="543" />
            </Array>
          </mxGeometry>
        </mxCell>
        <mxCell id="ZDhaCBMrM8aTtv54tsJH-21" value="1.9:insert" style="verticalAlign=bottom;endArrow=block;edgeStyle=elbowEdgeStyle;elbow=vertical;curved=0;rounded=0;fontSize=18;" edge="1" parent="1" source="ZDhaCBMrM8aTtv54tsJH-3" target="ZDhaCBMrM8aTtv54tsJH-9">
          <mxGeometry relative="1" as="geometry">
            <Array as="points">
              <mxPoint x="517" y="595" />
            </Array>
          </mxGeometry>
        </mxCell>
        <mxCell id="ZDhaCBMrM8aTtv54tsJH-22" value="1.10:return" style="verticalAlign=bottom;endArrow=block;edgeStyle=elbowEdgeStyle;elbow=vertical;curved=0;rounded=0;dashed=1;dashPattern=2 3;fontSize=18;" edge="1" parent="1" source="ZDhaCBMrM8aTtv54tsJH-9" target="ZDhaCBMrM8aTtv54tsJH-3">
          <mxGeometry relative="1" as="geometry">
            <Array as="points">
              <mxPoint x="514" y="647" />
            </Array>
          </mxGeometry>
        </mxCell>
        <mxCell id="ZDhaCBMrM8aTtv54tsJH-23" value="1.11:return" style="verticalAlign=bottom;endArrow=block;edgeStyle=elbowEdgeStyle;elbow=vertical;curved=0;rounded=0;dashed=1;dashPattern=2 3;fontSize=18;" edge="1" parent="1" source="ZDhaCBMrM8aTtv54tsJH-3" target="ZDhaCBMrM8aTtv54tsJH-1">
          <mxGeometry relative="1" as="geometry">
            <Array as="points">
              <mxPoint x="206" y="699" />
            </Array>
          </mxGeometry>
        </mxCell>
      </root>
    </mxGraphModel>
  </diagram>
</mxfile>
